<svg width="18" height="18" viewBox="0 0 18 18" fill="none" xmlns="http://www.w3.org/2000/svg">
<path d="M9.59692 5.02808L15.2219 10.6531C15.3804 10.8116 15.4695 11.0266 15.4695 11.2507C15.4695 11.4749 15.3804 11.6899 15.2219 11.8484C15.0634 12.0069 14.8484 12.0959 14.6243 12.0959C14.4001 12.0959 14.1851 12.0069 14.0266 11.8484L8.99997 6.82034L3.97192 11.847C3.89344 11.9255 3.80026 11.9877 3.69772 12.0302C3.59517 12.0727 3.48526 12.0945 3.37427 12.0945C3.26327 12.0945 3.15336 12.0727 3.05082 12.0302C2.94827 11.9877 2.8551 11.9255 2.77661 11.847C2.69812 11.7685 2.63587 11.6753 2.59339 11.5728C2.55091 11.4702 2.52905 11.3603 2.52905 11.2493C2.52905 11.1383 2.55091 11.0284 2.59339 10.9259C2.63587 10.8233 2.69812 10.7302 2.77661 10.6517L8.40161 5.02667C8.48009 4.9481 8.57331 4.8858 8.67592 4.84334C8.77853 4.80087 8.88851 4.77908 8.99956 4.77921C9.11061 4.77934 9.22054 4.80139 9.32305 4.8441C9.42556 4.8868 9.51863 4.94932 9.59692 5.02808Z" fill="#313131"/>
</svg>
