<svg width="24" height="22" viewBox="0 0 24 22" fill="none" xmlns="http://www.w3.org/2000/svg">
<path d="M12 8.25586C10.0488 8.25586 8.40002 9.8763 8.40002 11.7939C8.40002 13.7116 10.0488 15.332 12 15.332C13.9512 15.332 15.6 13.7116 15.6 11.7939C15.6 9.8763 13.9512 8.25586 12 8.25586Z" fill="#211A2C"/>
<path d="M21.6 3.53809H18.4968L15.2484 0.345554C15.1372 0.235823 15.0049 0.148801 14.8593 0.0894963C14.7137 0.0301918 14.5576 -0.000223429 14.4 1.23559e-06H9.6C9.44239 -0.000223429 9.28629 0.0301918 9.14068 0.0894963C8.99508 0.148801 8.86285 0.235823 8.7516 0.345554L5.5032 3.53809H2.4C1.0764 3.53809 0 4.59597 0 5.89681V18.8698C0 20.1706 1.0764 21.2285 2.4 21.2285H21.6C22.9236 21.2285 24 20.1706 24 18.8698V5.89681C24 4.59597 22.9236 3.53809 21.6 3.53809ZM12 17.6904C8.748 17.6904 6 14.9897 6 11.7936C6 8.59755 8.748 5.89681 12 5.89681C15.252 5.89681 18 8.59755 18 11.7936C18 14.9897 15.252 17.6904 12 17.6904Z" fill="#211A2C"/>
</svg>
