<svg width="16" height="16" viewBox="0 0 16 16" fill="none" xmlns="http://www.w3.org/2000/svg">
<g clip-path="url(#clip0_496_2919)">
<path d="M14.7564 5.82675L7.23296 13.3502C7.05717 13.5259 6.8188 13.6246 6.57027 13.6246C6.32173 13.6246 6.08337 13.5259 5.90757 13.3502L1.71109 9.13144C1.53559 8.95567 1.43701 8.71743 1.43701 8.46904C1.43701 8.22065 1.53559 7.98241 1.71109 7.80663L2.88296 6.63476C3.05867 6.45979 3.29653 6.36156 3.54449 6.36156C3.79245 6.36156 4.03031 6.45979 4.20601 6.63476L6.59371 8.95039L12.2632 3.35058C12.439 3.17543 12.6769 3.07709 12.9251 3.07709C13.1732 3.07709 13.4111 3.17543 13.5869 3.35058L14.7558 4.4955C14.8437 4.58262 14.9135 4.68627 14.9612 4.8005C15.0088 4.91472 15.0334 5.03724 15.0334 5.16101C15.0335 5.28477 15.009 5.40731 14.9615 5.52158C14.9139 5.63584 14.8442 5.73956 14.7564 5.82675Z" fill="white"/>
</g>
<defs>
<clipPath id="clip0_496_2919">
<rect width="15" height="15" fill="white" transform="translate(0.5 0.5)"/>
</clipPath>
</defs>
</svg>
