<svg width="12" height="12" viewBox="0 0 12 12" fill="none" xmlns="http://www.w3.org/2000/svg">
<path d="M4.71922 0.53135C5.42147 -0.176214 6.56789 -0.176214 7.27615 0.525948L7.71431 0.96345C7.88237 1.13149 8.11045 1.22811 8.35054 1.22811H8.96876C9.96512 1.22811 10.7754 2.0377 10.7754 3.03393V3.65267C10.7754 3.89213 10.8715 4.12018 11.0395 4.28822L11.4717 4.72032C11.8138 5.0564 11.9999 5.5125 11.9999 5.99261C12.0059 6.47272 11.8198 6.92943 11.4837 7.27091L11.0395 7.71501C10.8715 7.88305 10.7754 8.1111 10.7754 8.35176V8.9693C10.7754 9.96553 9.96512 10.7763 8.96876 10.7763H8.35054C8.11045 10.7763 7.88237 10.8717 7.71431 11.0398L7.28215 11.4719C6.92802 11.8266 6.46585 12 6.00369 12C5.54152 12 5.07935 11.8266 4.72522 11.4785L4.28706 11.0398C4.119 10.8717 3.89092 10.7763 3.65083 10.7763H3.03261C2.03625 10.7763 1.22595 9.96553 1.22595 8.9693V8.35176C1.22595 8.1111 1.12992 7.88305 0.961858 7.70901L0.529702 7.28291C-0.172553 6.58135 -0.178555 5.43448 0.523699 4.72692L0.961858 4.28822C1.12992 4.12018 1.22595 3.89213 1.22595 3.64607V3.03393C1.22595 2.0377 2.03625 1.22811 3.03261 1.22811H3.65083C3.89092 1.22811 4.119 1.13149 4.28706 0.96345L4.71922 0.53135ZM7.54625 7.01885C7.25214 7.01885 7.01805 7.2535 7.01805 7.54097C7.01805 7.83504 7.25214 8.06909 7.54625 8.06909C7.83435 8.06909 8.06843 7.83504 8.06843 7.54097C8.06843 7.2535 7.83435 7.01885 7.54625 7.01885ZM7.91238 4.08417C7.7083 3.88072 7.37818 3.88072 7.17411 4.08417L4.08899 7.16888C3.88492 7.37293 3.88492 7.70901 4.08899 7.91306C4.18503 8.01508 4.31707 8.06909 4.45512 8.06909C4.59918 8.06909 4.73122 8.01508 4.82726 7.91306L7.91238 4.82894C8.11645 4.6249 8.11645 4.28822 7.91238 4.08417ZM4.46113 3.93414C4.17302 3.93414 3.93294 4.16819 3.93294 4.45626C3.93294 4.75092 4.17302 4.98438 4.46113 4.98438C4.74923 4.98438 4.98332 4.75092 4.98332 4.45626C4.98332 4.16819 4.74923 3.93414 4.46113 3.93414Z" fill="#FD8900"/>
</svg>
