<svg width="25" height="24" viewBox="0 0 25 24" fill="none" xmlns="http://www.w3.org/2000/svg">
<path d="M16.691 2C19.78 2 21.5 3.78 21.5 6.83V17.16C21.5 20.26 19.78 22 16.691 22H8.31C5.27 22 3.5 20.26 3.5 17.16V6.83C3.5 3.78 5.27 2 8.31 2H16.691ZM8.58 15.74C8.28 15.71 7.99 15.85 7.83 16.11C7.67 16.36 7.67 16.69 7.83 16.95C7.99 17.2 8.28 17.35 8.58 17.31H16.42C16.819 17.27 17.12 16.929 17.12 16.53C17.12 16.12 16.819 15.78 16.42 15.74H8.58ZM16.42 11.179H8.58C8.149 11.179 7.8 11.53 7.8 11.96C7.8 12.39 8.149 12.74 8.58 12.74H16.42C16.85 12.74 17.2 12.39 17.2 11.96C17.2 11.53 16.85 11.179 16.42 11.179ZM11.569 6.65H8.58V6.66C8.149 6.66 7.8 7.01 7.8 7.44C7.8 7.87 8.149 8.22 8.58 8.22H11.569C12 8.22 12.35 7.87 12.35 7.429C12.35 7 12 6.65 11.569 6.65Z" fill="#FDC300"/>
</svg>
