<svg width="24" height="29" viewBox="0 0 24 29" fill="none" xmlns="http://www.w3.org/2000/svg">
<path d="M9.12449 24.3218C9.83025 24.1725 14.1307 24.1725 14.8365 24.3218C15.4398 24.4611 16.0923 24.7867 16.0923 25.4976C16.0572 26.1745 15.6601 26.7745 15.1115 27.1556C14.4001 27.7101 13.5653 28.0613 12.6926 28.1878C12.2099 28.2504 11.7357 28.2518 11.2698 28.1878C10.3957 28.0613 9.56085 27.7101 8.85089 27.1541C8.30087 26.7745 7.90379 26.1745 7.86872 25.4976C7.86872 24.7867 8.52116 24.4611 9.12449 24.3218ZM12.0638 0C15.0005 0 18.0004 1.39344 19.7823 3.70541C20.9384 5.19411 21.4688 6.6814 21.4688 8.99337V9.59482C21.4688 11.3679 21.9374 12.413 22.9687 13.6173C23.7502 14.5046 24 15.6435 24 16.8791C24 18.1133 23.5945 19.2849 22.7821 20.2361C21.7186 21.3765 20.2187 22.1045 18.6879 22.231C16.4696 22.4201 14.2499 22.5794 12.0007 22.5794C9.75013 22.5794 7.53183 22.4841 5.31353 22.231C3.78135 22.1045 2.28144 21.3765 1.21929 20.2361C0.406899 19.2849 0 18.1133 0 16.8791C0 15.6435 0.251155 14.5046 1.03128 13.6173C2.09483 12.413 2.53259 11.3679 2.53259 9.59482V8.99337C2.53259 6.61883 3.1247 5.06614 4.34399 3.54616C6.1568 1.32945 9.06261 0 11.9376 0H12.0638Z" fill="white"/>
</svg>
