<svg width="12" height="12" viewBox="0 0 12 12" fill="none" xmlns="http://www.w3.org/2000/svg">
<path d="M10.9921 5.36159L8.87804 7.20659L9.51132 9.95346C9.54483 10.0971 9.53527 10.2474 9.48383 10.3855C9.43239 10.5237 9.34135 10.6437 9.2221 10.7304C9.10285 10.8172 8.96068 10.8668 8.81336 10.8732C8.66604 10.8796 8.52011 10.8424 8.39382 10.7663L5.99804 9.31315L3.60741 10.7663C3.48112 10.8424 3.33519 10.8796 3.18787 10.8732C3.04055 10.8668 2.89838 10.8172 2.77913 10.7304C2.65988 10.6437 2.56884 10.5237 2.5174 10.3855C2.46596 10.2474 2.4564 10.0971 2.48991 9.95346L3.12226 7.2094L1.00773 5.36159C0.895886 5.26513 0.815014 5.1378 0.775251 4.99557C0.735489 4.85333 0.738606 4.70252 0.784212 4.56205C0.829818 4.42158 0.915882 4.2977 1.03161 4.20594C1.14734 4.11419 1.28759 4.05865 1.43476 4.04628L4.22194 3.80487L5.30991 1.20987C5.36673 1.07371 5.46256 0.957398 5.58534 0.875587C5.70813 0.793776 5.85237 0.750122 5.99991 0.750122C6.14746 0.750122 6.2917 0.793776 6.41448 0.875587C6.53727 0.957398 6.6331 1.07371 6.68991 1.20987L7.78116 3.80487L10.5674 4.04628C10.7146 4.05865 10.8548 4.11419 10.9706 4.20594C11.0863 4.2977 11.1724 4.42158 11.218 4.56205C11.2636 4.70252 11.2667 4.85333 11.2269 4.99557C11.1872 5.1378 11.1063 5.26513 10.9944 5.36159H10.9921Z" fill="#313131"/>
</svg>
